<?xml version="1.0" encoding="iso-8859-1"?>
<!-- Generator: Adobe Illustrator 19.0.0, SVG Export Plug-In . SVG Version: 6.00 Build 0)  -->
<svg version="1.1" id="Layer_1" xmlns="http://www.w3.org/2000/svg" xmlns:xlink="http://www.w3.org/1999/xlink" x="0px" y="0px"
	 viewBox="0 0 512 512" style="enable-background:new 0 0 512 512;" xml:space="preserve">
<path style="fill:#877E73;" d="M364.111,161.133c-4.468-4.222-4.667-11.267-0.444-15.735l95.722-101.287
	c4.223-4.468,11.267-4.667,15.735-0.444c4.468,4.222,4.667,11.267,0.444,15.735l-95.722,101.287
	c-2.189,2.317-5.137,3.485-8.092,3.485C369.012,164.174,366.263,163.166,364.111,161.133z M132.154,160.689
	c2.189,2.317,5.137,3.485,8.092,3.485c2.743,0,5.492-1.008,7.643-3.041c4.468-4.222,4.667-11.267,0.444-15.735L52.611,44.111
	c-4.223-4.468-11.267-4.667-15.735-0.444c-4.468,4.222-4.667,11.267-0.444,15.735L132.154,160.689z M181.532,356.471L62.324,470.261
	H44.522c-6.147,0-11.13,4.983-11.13,11.13s4.983,11.13,11.13,11.13h44.522c6.147,0,11.13-4.983,11.13-11.13
	c0-4.54-2.721-8.437-6.618-10.169l103.347-98.649c4.447-4.244,4.61-11.29,0.366-15.736
	C193.024,352.39,185.979,352.226,181.532,356.471z M278.261,481.391h-11.13v-94.609c0-6.147-4.983-11.13-11.13-11.13
	c-6.147,0-11.13,4.983-11.13,11.13v94.609h-11.13c-6.147,0-11.13,4.983-11.13,11.13s4.983,11.13,11.13,11.13h44.522
	c6.147,0,11.13-4.983,11.13-11.13S284.408,481.391,278.261,481.391z M467.478,470.261h-17.802l-119.208-113.79
	c-4.448-4.245-11.492-4.08-15.736,0.366c-4.244,4.447-4.082,11.492,0.366,15.736l103.347,98.649
	c-3.897,1.732-6.618,5.63-6.618,10.169c0,6.147,4.983,11.13,11.13,11.13h44.522c6.147,0,11.13-4.983,11.13-11.13
	S473.626,470.261,467.478,470.261z"/>
<path style="fill:#B6CECC;" d="M100.174,205.81V192c0-86.061,69.766-155.826,155.826-155.826l0,0
	c86.061,0,155.826,69.766,155.826,155.826v13.81H100.174z"/>
<path style="fill:#CFE5E2;" d="M354.183,157.973c-1.227,0.434-2.479,0.64-3.71,0.64c-4.586,0-8.88-2.855-10.494-7.424
	C327.431,115.682,293.681,91.826,256,91.826c-6.147,0-11.13-4.983-11.13-11.13c0-6.147,4.983-11.13,11.13-11.13
	c47.097,0,89.281,29.821,104.968,74.204C363.017,149.565,359.978,155.924,354.183,157.973z"/>
<path style="fill:#9379AD;" d="M500.847,292.174h-22.239c0,67.618-99.665,122.435-222.609,122.435S33.391,359.792,33.391,292.174
	H11.153c-10.234,0-15.044-12.65-7.395-19.449l46.664-41.48c20.374-18.11,46.687-28.114,73.946-28.114H387.63
	c27.26,0,53.572,10.004,73.946,28.114l46.664,41.48C515.891,279.524,511.082,292.174,500.847,292.174z"/>
<path style="fill:#694887;" d="M478.609,292.174c0,67.618-99.665,122.435-222.609,122.435S33.391,359.792,33.391,292.174H478.609z"
	/>
<path style="fill:#80995F;" d="M512,41.739c0,18.441-14.949,33.391-33.391,33.391s-33.391-14.95-33.391-33.391
	s14.949-33.391,33.391-33.391S512,23.298,512,41.739z M33.391,8.348C14.949,8.348,0,23.298,0,41.739S14.949,75.13,33.391,75.13
	s33.391-14.95,33.391-33.391S51.833,8.348,33.391,8.348z"/>
<path style="fill:#A6BE65;" d="M484.174,19.478c9.22,0,16.696,7.475,16.696,16.696s-7.475,16.696-16.696,16.696
	c-9.22,0-16.696-7.475-16.696-16.696S474.954,19.478,484.174,19.478z M27.826,19.478c-9.22,0-16.696,7.475-16.696,16.696
	S18.606,52.87,27.826,52.87s16.696-7.475,16.696-16.696S37.047,19.478,27.826,19.478z"/>
<g>
</g>
<g>
</g>
<g>
</g>
<g>
</g>
<g>
</g>
<g>
</g>
<g>
</g>
<g>
</g>
<g>
</g>
<g>
</g>
<g>
</g>
<g>
</g>
<g>
</g>
<g>
</g>
<g>
</g>
</svg>
